<svg width="1200" height="800" viewBox="0 0 1200 800" fill="none" xmlns="http://www.w3.org/2000/svg">
  <rect width="1200" height="800" rx="40" fill="#F5EFE4"/>
  <rect x="58" y="56" width="1084" height="688" rx="34" fill="#FFF9F0" stroke="#D7CBB8" stroke-width="4"/>
  <rect x="102" y="112" width="304" height="576" rx="28" fill="#14352A"/>
  <rect x="442" y="112" width="318" height="270" rx="28" fill="#E7FBF5" stroke="#9FD5C8" stroke-width="4"/>
  <rect x="796" y="112" width="304" height="270" rx="28" fill="#FFF3DE" stroke="#E7C98E" stroke-width="4"/>
  <rect x="442" y="418" width="658" height="270" rx="28" fill="#FFFFFF" stroke="#D7CBB8" stroke-width="4"/>
  <rect x="132" y="156" width="148" height="18" rx="9" fill="#8BE0C8"/>
  <rect x="132" y="194" width="206" height="12" rx="6" fill="#B8D0C8"/>
  <rect x="132" y="252" width="244" height="94" rx="20" fill="#0F766E"/>
  <rect x="132" y="376" width="244" height="94" rx="20" fill="#1E5B4D"/>
  <rect x="132" y="500" width="244" height="94" rx="20" fill="#23483D"/>
  <text x="160" y="310" fill="#FFFFFF" font-family="Arial, sans-serif" font-size="42" font-weight="700">$82.4K</text>
  <text x="160" y="434" fill="#FFFFFF" font-family="Arial, sans-serif" font-size="42" font-weight="700">18.6%</text>
  <text x="160" y="558" fill="#FFFFFF" font-family="Arial, sans-serif" font-size="42" font-weight="700">92 docs</text>
  <text x="474" y="164" fill="#115E59" font-family="Arial, sans-serif" font-size="28" font-weight="700">Software contable para pymes</text>
  <rect x="474" y="206" width="240" height="12" rx="6" fill="#8EBFB4"/>
  <rect x="474" y="236" width="178" height="12" rx="6" fill="#B9D9D2"/>
  <path d="M480 326C518 278 560 292 594 304C630 316 676 346 720 258" stroke="#0F766E" stroke-width="14" stroke-linecap="round"/>
  <circle cx="482" cy="326" r="14" fill="#D97706"/>
  <circle cx="592" cy="304" r="14" fill="#0F766E"/>
  <circle cx="720" cy="258" r="14" fill="#14352A"/>
  <text x="828" y="164" fill="#A05D00" font-family="Arial, sans-serif" font-size="28" font-weight="700">Conciliacion y control</text>
  <rect x="828" y="206" width="204" height="12" rx="6" fill="#E7C98E"/>
  <rect x="828" y="240" width="148" height="12" rx="6" fill="#EED8AC"/>
  <rect x="828" y="286" width="236" height="58" rx="18" fill="#FFFFFF"/>
  <text x="852" y="324" fill="#14352A" font-family="Arial, sans-serif" font-size="30" font-weight="700">Cash flow limpio</text>
  <text x="474" y="472" fill="#14352A" font-family="Arial, sans-serif" font-size="30" font-weight="700">Reportes, bancos y gastos en una misma lectura</text>
  <rect x="474" y="510" width="560" height="14" rx="7" fill="#D8E7E2"/>
  <rect x="474" y="544" width="490" height="14" rx="7" fill="#E4EEEA"/>
  <rect x="474" y="586" width="148" height="58" rx="18" fill="#0F766E"/>
  <rect x="640" y="586" width="148" height="58" rx="18" fill="#D97706"/>
  <rect x="806" y="586" width="148" height="58" rx="18" fill="#14352A"/>
</svg>