<svg xmlns="http://www.w3.org/2000/svg" viewBox="0 0 1200 900" role="img" aria-labelledby="title desc">
  <title id="title">Crear factura profesional 2026</title>
  <desc id="desc">Portada editorial con plantilla de factura y bloques de datos clave.</desc>
  <defs>
    <linearGradient id="bg" x1="0" y1="0" x2="1" y2="1">
      <stop offset="0%" stop-color="#0f766e"/>
      <stop offset="100%" stop-color="#7c2d12"/>
    </linearGradient>
  </defs>
  <rect width="1200" height="900" fill="url(#bg)"/>
  <rect x="84" y="82" width="1032" height="736" rx="40" fill="#fff7ed" opacity="0.97"/>
  <text x="142" y="164" fill="#b45309" font-family="Segoe UI, Arial, sans-serif" font-size="26" font-weight="700">TareasVirtual / Cobros</text>
  <text x="142" y="240" fill="#111827" font-family="Segoe UI, Arial, sans-serif" font-size="54" font-weight="700">Como crear una</text>
  <text x="142" y="302" fill="#111827" font-family="Segoe UI, Arial, sans-serif" font-size="54" font-weight="700">factura profesional</text>
  <text x="142" y="368" fill="#57534e" font-family="Segoe UI, Arial, sans-serif" font-size="28">Datos legales, desglose y condiciones de pago</text>
  <rect x="142" y="430" width="420" height="270" rx="28" fill="#ffffff" stroke="#e5e7eb" stroke-width="3"/>
  <text x="178" y="490" fill="#0f172a" font-family="Segoe UI, Arial, sans-serif" font-size="28" font-weight="700">Factura 2026</text>
  <rect x="178" y="522" width="196" height="18" rx="9" fill="#cbd5e1"/>
  <rect x="178" y="560" width="330" height="18" rx="9" fill="#e2e8f0"/>
  <rect x="178" y="598" width="280" height="18" rx="9" fill="#e2e8f0"/>
  <rect x="178" y="642" width="350" height="22" rx="11" fill="#fed7aa"/>
  <rect x="618" y="430" width="436" height="108" rx="24" fill="#ffedd5"/>
  <text x="652" y="482" fill="#9a3412" font-family="Segoe UI, Arial, sans-serif" font-size="24" font-weight="700">1. Datos del emisor y cliente</text>
  <rect x="618" y="562" width="436" height="108" rx="24" fill="#dcfce7"/>
  <text x="652" y="614" fill="#166534" font-family="Segoe UI, Arial, sans-serif" font-size="24" font-weight="700">2. Concepto y desglose claro</text>
  <rect x="618" y="694" width="436" height="108" rx="24" fill="#dbeafe"/>
  <text x="652" y="746" fill="#1d4ed8" font-family="Segoe UI, Arial, sans-serif" font-size="24" font-weight="700">3. Fecha y metodo de pago</text>
</svg>