<svg xmlns="http://www.w3.org/2000/svg" viewBox="0 0 1200 900" role="img" aria-labelledby="title desc">
  <title id="title">Organizar la semana de estudio</title>
  <desc id="desc">Portada editorial con plan semanal y bloques de estudio.</desc>
  <defs>
    <linearGradient id="bg" x1="0" y1="0" x2="1" y2="1">
      <stop offset="0%" stop-color="#0f766e"/>
      <stop offset="100%" stop-color="#f59e0b"/>
    </linearGradient>
  </defs>
  <rect width="1200" height="900" fill="url(#bg)"/>
  <rect x="86" y="82" width="1028" height="736" rx="40" fill="#fffbeb" opacity="0.97"/>
  <text x="146" y="166" fill="#b45309" font-family="Segoe UI, Arial, sans-serif" font-size="26" font-weight="700">TareasVirtual / Estudio</text>
  <text x="146" y="244" fill="#111827" font-family="Segoe UI, Arial, sans-serif" font-size="52" font-weight="700">Como organizar tu</text>
  <text x="146" y="304" fill="#111827" font-family="Segoe UI, Arial, sans-serif" font-size="52" font-weight="700">semana de estudio</text>
  <text x="146" y="368" fill="#57534e" font-family="Segoe UI, Arial, sans-serif" font-size="28">Bloques de 30 minutos, prioridades y descanso</text>
  <rect x="146" y="434" width="908" height="286" rx="30" fill="#ffffff" stroke="#e5e7eb" stroke-width="3"/>
  <g fill="#e2e8f0">
    <rect x="188" y="480" width="130" height="190" rx="18"/>
    <rect x="336" y="480" width="130" height="190" rx="18"/>
    <rect x="484" y="480" width="130" height="190" rx="18"/>
    <rect x="632" y="480" width="130" height="190" rx="18"/>
    <rect x="780" y="480" width="130" height="190" rx="18"/>
  </g>
  <g fill="#0f766e">
    <rect x="206" y="522" width="94" height="18" rx="9"/>
    <rect x="354" y="562" width="94" height="18" rx="9"/>
    <rect x="502" y="522" width="94" height="18" rx="9"/>
    <rect x="650" y="602" width="94" height="18" rx="9"/>
    <rect x="798" y="542" width="94" height="18" rx="9"/>
  </g>
  <text x="146" y="786" fill="#334155" font-family="Segoe UI, Arial, sans-serif" font-size="26">Menos caos, mas continuidad y sesiones que si se cumplen.</text>
</svg>